. 
 
 
http://www.torrentday.com :  Your Key To The Scene.


Now TvTeam with [No-RAR] Releases.



(((((((((((((= Enjoy No RAR releases =))))))))))))))))))))



...................................NFO:....................................

.*******************************************************************************
               The.Secret.Life.of.Words.2005.DVDRip.AC3.X264-BARC0DE
*******************************************************************************

-------------------------------------------------------------------------------
                              General Information
-------------------------------------------------------------------------------
Type.................: Movie
Name.................: The Secret Life of Words
Movie Information....: http://www.imdb.com/title/tt0430576/
Genre................: Drama

-------------------------------------------------------------------------------
                                    PLOT
-------------------------------------------------------------------------------
A hearing impaired factory worker gives up her first holiday in years and instead 
travels out to an oil rig, where she cares for a man suffering from severe burns.

-------------------------------------------------------------------------------
                                    CAST
-------------------------------------------------------------------------------
Sarah Polley	... 	Hanna
Tim Robbins	... 	Josef
Sverre Anker Ousdal	... 	Dimitri (as Sverre Ousdal)
Javier Cmara	... 	Simon
Danny Cunningham	... 	Scott
Dean Lennox Kelly	... 	Liam (as Dean Lenox Kelly)
Daniel Mays	... 	Martin
Emmanuel Idowu	... 	Abdul
Eddie Marsan	... 	Victor
Steven Mackintosh	... 	Doctor Sulitzer
Julie Christie	... 	Inge
Reg Wilson	... 	Factory Manager
Leonor Watling	... 	Josef's friend's wife
Daphne Brown	... 	Old Lady on Bus
Muriel Hobson	... 	Old Lady on Bus

-------------------------------------------------------------------------------
                                    MEDiA iNFO
-------------------------------------------------------------------------------

eneral
Complete name                    : The.Secret.Life.of.Words.2005.DVDRip.AC3.X264-BARC0DE.mkv
Format                           : Matroska
File size                        : 2.17 GiB
Duration                         : 1h 50mn
Overall bit rate                 : 2 821 Kbps


Video
ID                               : 1
Format                           : AVC
Format/Info                      : Advanced Video Codec
Format profile                   : High@L3.0
Format settings, CABAC           : Yes
Format settings, ReFrames        : 3 frames
Muxing mode                      : Container profile=Unknown@3.0
Codec ID                         : V_MPEG4/ISO/AVC
Duration                         : 1h 50mn
Bit rate                         : 2 316 Kbps
Nominal bit rate                 : 2 359 Kbps
Width                            : 720 pixels
Height                           : 400 pixels
Display aspect ratio             : 16:9
Frame rate                       : 25.000 fps
Resolution                       : 8 bits
Colorimetry                      : 4:2:0
Scan type                        : Progressive
Bits/(Pixel*Frame)               : 0.322
Stream size                      : 1.79 GiB (82%)
Writing library                  : x264 core 79


Audio
ID                               : 2
Format                           : AC-3
Format/Info                      : Audio Coding 3
Codec ID                         : A_AC3
Duration                         : 1h 50mn
Bit rate mode                    : Constant
Bit rate                         : 448 Kbps
Channel(s)                       : 6 channels
Channel positions                : Front: L C R, Side: L R, LFE
Sampling rate                    : 48.0 KHz
Stream size                      : 354 MiB (16%)
Language                         : English